<svg xmlns="http://www.w3.org/2000/svg" xmlns:xlink="http://www.w3.org/1999/xlink" viewBox="0 0 500 500">
    <defs>
        <style>
            .cls-2{fill:#000000;}
        </style>
    </defs>
    <title>todo_icon</title>
    <g id="Layer_2">
        <path class="cls-2"
              d="M250.21,26c4.67,15.08,8.41,29,13.27,42.47,10,27.78,24.72,53.28,40.86,78.11s32.61,49.29,46.83,75c20.54,37.17,13.21,72.41-12.29,105.07-20.66,26.47-46.36,47.83-73.26,67.95-4.84,3.61-5.42,3.79-6.62,9.6-1,4.85-1.91,21.38-2,23.3-1.06,22.59-2.06,28.34-3,51.47-3.59-.68-15.75-1.39-19.52-2.1l-.7-1.19c1.82-25.06,3.74-50.12,5.28-75.2.13-2.12-1.78-5-3.65-6.5-24.06-18.85-46.65-39.14-65.36-63.14-21.67-27.79-35.74-58.15-30.51-94.13,3.71-25.55,16.07-47.65,30.8-68.56,9.83-13.94,20.23-27.5,30.56-41.1,23-30.26,45.39-60.75,49.31-101.08m0-10c-.34,0-.68,0-1,.05a10,10,0,0,0-8.94,9c-1.63,16.81-7,33.33-16.33,50.5-8.39,15.38-19,29.71-31,45.5l-3.29,4.33c-9.14,12-18.58,24.46-27.47,37.06-24.49,34.75-30.25,57.2-32.53,72.88a113.19,113.19,0,0,0,5.66,54.95c5.48,15.31,14.27,30.61,26.86,46.77,16.77,21.51,38,42.06,66.81,64.65-1.19,19.22-2.63,38.75-4,57.65q-.57,7.83-1.15,15.67a10,10,0,0,0,1.37,5.8l.7,1.2a10,10,0,0,0,6.76,4.74c2.23.42,5.62.74,10.94,1.21,3.07.27,7.29.64,8.58.89A10.44,10.44,0,0,0,254,489a10,10,0,0,0,10-9.6c.49-12.17,1-19.4,1.54-27,.47-6.73,1-13.68,1.46-24.35.22-4.63,1.1-18.34,1.8-21.76.19-.88.32-1.44.41-1.79.44-.35,1.1-.84,1.7-1.29l.71-.53c24.55-18.36,52.68-41,75.15-69.79,14.27-18.28,22.83-37,25.43-55.62,2.83-20.25-1.29-40.59-12.27-60.45-12.12-21.94-26-43.21-39.47-63.79q-3.87-5.91-7.73-11.84C288,103,278.43,80.48,272.89,65.08c-3.22-8.95-6-18.15-8.86-27.89-1.36-4.57-2.77-9.3-4.27-14.15a10,10,0,0,0-9.55-7Z"/>
        <path class="cls-2"
              d="M210.57,205.66a8.27,8.27,0,0,1-4,1.85H194q-.13,8.91,0,18.33t.14,18.33a4.64,4.64,0,0,1-1.82,4,6.27,6.27,0,0,1-3.7,1.33,5.69,5.69,0,0,1-3.5-1.22,5.54,5.54,0,0,1-2-3.76q0-9-.07-18.5t-.07-18.5H175a7.35,7.35,0,0,1-4.38-1.73,4.18,4.18,0,0,1-1.41-3,4.53,4.53,0,0,1,1.55-3.18,6.27,6.27,0,0,1,4.64-1.56H183V179.76a6.57,6.57,0,0,1,2.16-3.47,5.29,5.29,0,0,1,3.36-1.16,5.66,5.66,0,0,1,5.52,4.28V198h12.93a7.11,7.11,0,0,1,3.77,1.91,4.13,4.13,0,0,1,1.21,2.83A3.88,3.88,0,0,1,210.57,205.66Z"/>
        <path class="cls-2"
              d="M266.92,217.4a25.93,25.93,0,0,0-4.65-10.81,22.52,22.52,0,0,0-9.35-7.29q-5.86-2.53-13.67-1a30,30,0,0,0-15.35,8,32.94,32.94,0,0,0-5.11,6.42,48.36,48.36,0,0,0-3.64,7.22l-.4,1.51a40.15,40.15,0,0,0-.88,6,22.09,22.09,0,0,0,.47,6.13,22.64,22.64,0,0,0,4,8.9,23.34,23.34,0,0,0,16.77,9.31,26.3,26.3,0,0,0,11.1-1.45,29.18,29.18,0,0,0,12.93-8.55A34,34,0,0,0,266.31,229,23.55,23.55,0,0,0,266.92,217.4Zm-11.24,9.07a28.37,28.37,0,0,1-4,8,19.52,19.52,0,0,1-7.07,6,15.19,15.19,0,0,1-6.67,1.79,12.55,12.55,0,0,1-10.57-5.09,11.68,11.68,0,0,1-2.29-5.61,18.56,18.56,0,0,1-.2-4.56,39.35,39.35,0,0,1,.74-4.46,32.75,32.75,0,0,1,4.85-8.44,18.58,18.58,0,0,1,8.48-5.89c3.32-1.16,6.2-1.29,8.62-.41a12,12,0,0,1,5.79,4.34,16,16,0,0,1,2.76,6.93A16.45,16.45,0,0,1,255.68,226.47Z"/>
        <path class="cls-2"
              d="M268.4,321.13a4,4,0,0,0-.61-.63,4.55,4.55,0,0,1-.6-.64V259.38a6.28,6.28,0,0,0-2.42-3.23,5.63,5.63,0,0,0-8.62,3.58c0,1.31,0,3.88.07,7.69s.11,8.5.2,14.05a28.7,28.7,0,0,0-6.33-.92c-2.15-.08-4.31-.12-6.46-.12a34,34,0,0,0-7.34,1.1,36.31,36.31,0,0,0-6.93,2.48A29.53,29.53,0,0,0,223,288a17.71,17.71,0,0,0-4.64,5.43,40,40,0,0,0-2.9,7.23,27.67,27.67,0,0,0,0,15.72,19.74,19.74,0,0,0,3.7,7,20,20,0,0,0,8.35,5.95,28.75,28.75,0,0,0,10.43,1.91,35.92,35.92,0,0,0,10.78-1.67,31.2,31.2,0,0,0,9.35-4.69,5.59,5.59,0,0,0,.81,1.22,10.63,10.63,0,0,0,1.21,1.21,7,7,0,0,0,4.38,1.91,5.49,5.49,0,0,0,3.63-1,4.64,4.64,0,0,0,1.75-3A4.86,4.86,0,0,0,268.4,321.13Zm-11.85-9.94v1.62l-.8,1-.61.52-1,.86-1,.87a2.78,2.78,0,0,0-.61.64,21.78,21.78,0,0,1-8.68,4.05,34.73,34.73,0,0,1-9.9.46,21.58,21.58,0,0,0-3.09-1.16l-2.7-2.31c-.36-.62-.69-1.23-1-1.85s-.65-1.23-1-1.85c-.36-2.39-.62-4.47-.8-6.25a16.44,16.44,0,0,1,.8-6.24,13.41,13.41,0,0,1,4.25-6.47,21.21,21.21,0,0,1,6.93-3.88,28,28,0,0,1,8.35-1.44,30.66,30.66,0,0,1,8.48.92l.74.46c.22.16.47.31.74.47l.81.34c.09,3.09.13,6.34.13,9.77Z"/>
        <path class="cls-2"
              d="M333.09,298.53a26,26,0,0,0-4.64-10.81,22.47,22.47,0,0,0-9.36-7.29q-5.85-2.55-13.66-1a30,30,0,0,0-15.35,8,32.33,32.33,0,0,0-5.12,6.42,47.36,47.36,0,0,0-3.63,7.22l-.41,1.51a38.7,38.7,0,0,0-.87,6,21.75,21.75,0,0,0,.47,6.13,22.5,22.5,0,0,0,4,8.9,23.29,23.29,0,0,0,16.76,9.31,26.35,26.35,0,0,0,11.11-1.45,29.2,29.2,0,0,0,12.92-8.55,34.23,34.23,0,0,0,7.14-12.72A23.68,23.68,0,0,0,333.09,298.53Zm-11.24,9.07a28.37,28.37,0,0,1-4,8,19.62,19.62,0,0,1-7.07,6,15.15,15.15,0,0,1-6.66,1.79,12.55,12.55,0,0,1-10.57-5.09,11.58,11.58,0,0,1-2.29-5.61,17.68,17.68,0,0,1-.2-4.57,37.42,37.42,0,0,1,.74-4.45,32.72,32.72,0,0,1,4.84-8.44,18.7,18.7,0,0,1,8.49-5.9c3.32-1.15,6.19-1.29,8.61-.4a12,12,0,0,1,5.79,4.34,15.73,15.73,0,0,1,2.76,6.93A16.18,16.18,0,0,1,321.85,307.6Z"/>
       </g>
</svg>