<?xml version="1.0" encoding="UTF-8"?>
<!DOCTYPE svg PUBLIC "-//W3C//DTD SVG 1.1//EN" "http://www.w3.org/Graphics/SVG/1.1/DTD/svg11.dtd">
<svg xmlns="http://www.w3.org/2000/svg" xml:space="preserve" width="20mm" height="20mm" version="1.1" style="shape-rendering:geometricPrecision; text-rendering:geometricPrecision; image-rendering:optimizeQuality; fill-rule:evenodd; clip-rule:evenodd"
viewBox="0 0 2500 2300">
 <defs>
  <style type="text/css">
   <![CDATA[
    .fil0 {fill:#FFFFFF}
    .fil8 {fill:#010101}
    .fil7 {fill:#020202}
    .fil5 {fill:#030404}
    .fil9 {fill:#DBDBD8}
    .fil1 {fill:#E17325}
    .fil3 {fill:#F1C16E}
    .fil4 {fill:#F7A448}
    .fil2 {fill:#FC831B}
    .fil6 {fill:#FDFDFD}
   ]]>
  </style>
 </defs>
 <g id="Слой_x0020_1">
  <metadata id="CorelCorpID_0Corel-Layer"/>
   <g id="_1779360355408">
   <g>
    <path class="fil2" d="M1430 1081l-25 2c0,-10 -191,-40 -410,33 -35,18 -50,4 -79,21 -40,23 -72,54 -105,72 -23,13 -29,12 -55,5 8,40 35,73 44,132 15,92 27,223 35,317 4,51 12,111 13,161 -28,25 101,133 105,101 1,7 4,7 11,10 7,3 9,5 16,8 13,5 23,7 38,9 28,2 60,-3 85,-9 77,-18 157,-30 234,-43 27,-5 54,-10 81,-14 114,-9 390,-78 406,-110 34,-24 58,-50 83,-84l5 -7c23,-32 51,-84 67,-119 12,-27 60,-134 62,-152 2,-6 -3,4 2,-3l32 -86c3,-8 1,-8 6,-9 6,-15 13,-47 17,-65 4,-20 9,-46 16,-65 15,-42 43,-66 43,-121 -8,0 -17,-3 -28,-4 -30,-1 -55,4 -85,4 -91,1 -154,-52 -231,-66 -6,-1 -31,-5 -36,-2 -29,2 -232,100 -347,84z"/>
    <path class="fil3" d="M435 949c1,3 1,5 2,8 5,12 7,8 -2,18l-3 4c9,-5 5,-5 12,-9 21,9 0,18 118,51 38,11 101,21 148,21l22 0c19,-4 20,-2 46,-8 41,-9 92,-24 131,-38l62 -23c184,-38 203,-43 367,-101 11,-6 125,-11 145,-9 78,8 212,11 307,2 47,3 82,15 129,14 27,-1 95,-13 101,-46 -6,-8 -25,-21 -34,-28 -2,-2 -6,-5 -8,-7l-29 -19c-52,-33 -112,-59 -171,-80 -24,-8 -74,-25 -98,-28 -56,-17 -126,-28 -201,-35 -60,-16 -259,-7 -327,0 -96,8 -201,28 -287,56 -121,38 -231,88 -328,164 -23,17 -94,77 -102,93z"/>
    <path class="fil2" d="M638 1894c33,4 79,-35 96,-65l11 -22c58,-119 44,-308 30,-440 -2,-17 -14,-74 -11,-85 0,-4 -17,-46 -21,-55 -25,17 -25,7 -46,15 -14,5 -34,12 -50,12 -34,-1 -51,-27 -74,-47 -35,-30 -75,-55 -124,-58 -16,-1 -35,-5 -50,-7 20,28 45,152 53,195 6,32 21,104 25,133l4 23c15,84 27,185 45,264 8,35 22,65 43,83 12,12 53,51 69,54z"/>
    <path class="fil1" d="M1538 1866l-120 20c-27,4 -54,9 -81,14 -77,13 -157,25 -234,43 -25,6 -57,11 -85,9 -15,-2 -25,-4 -38,-9 -7,-3 -9,-5 -16,-8 -7,-3 -10,-3 -11,-10 -75,-89 -153,-258 -92,56l4 55c41,3 73,3 113,-4 35,-6 70,-10 105,-17 69,-12 140,-21 210,-33l210 -33c69,-9 140,-23 210,-33 60,-9 152,-22 194,-50 51,-33 58,-95 78,-165 18,-63 31,-126 48,-191 5,-16 47,-179 48,-194 -5,1 -3,1 -6,9l-32 86c-5,7 0,-3 -2,3 -2,18 -50,125 -62,152 -16,35 -44,87 -67,119l-5 7c-25,34 -49,60 -83,84 -94,49 -173,63 -228,78 -29,9 -51,9 -58,12z"/>
    <path class="fil4" d="M971 973l-62 23c-39,14 -90,29 -131,38 -26,6 -27,4 -46,8l-22 0c-47,0 -110,-10 -148,-21 -118,-33 -97,-42 -118,-51 -7,4 -3,4 -12,9l3 -4c9,-10 7,-6 2,-18 -1,-3 -1,-5 -2,-8 -11,8 -34,37 -44,52 -15,22 -23,43 -18,76 7,1 20,-7 55,-2 94,12 250,61 313,113 11,-12 -2,-23 68,-73 25,-17 63,-38 90,-50l65 -30 7 -62z"/>
    <path class="fil1" d="M638 1894c4,7 109,77 129,91 22,16 55,41 83,46 -2,-32 -6,-65 -8,-97 -2,-28 -4,-69 -8,-96 -4,-31 -5,-65 -8,-96l-26 -286c-4,-34 -13,-124 -27,-156 -3,-6 -4,-13 -9,-18 -3,11 9,68 11,85 14,132 28,321 -30,440l-11 22c-17,30 -63,69 -96,65z"/>
    <path class="fil4" d="M1455 863c1,1 -53,39 -42,57 4,6 -28,56 -23,60 79,6 505,-47 582,-30 8,1 17,3 25,6 5,1 14,3 22,5 18,5 34,9 49,16 24,9 43,17 63,31 8,5 12,10 18,15 -10,-51 -57,-112 -87,-150 -7,-8 -36,-36 -42,-40 -6,33 -74,45 -101,46 -47,1 -82,-11 -129,-14 -27,-2 -315,-5 -335,-2z"/>
    <path class="fil4" d="M1398 1011l44 80c141,12 308,-101 371,-92 77,14 140,67 231,66 30,0 55,-5 85,-4 11,1 20,4 28,4 -9,-55 -126,-87 -169,-97 -73,-16 -162,-26 -239,-28 2,8 -324,32 -321,40 3,10 -33,22 -30,31z"/>
    <path class="fil4" d="M399 1142c15,2 34,6 50,7 49,3 89,28 124,58 23,20 40,46 74,47 16,0 36,-7 50,-12 21,-8 21,2 46,-15 -2,-12 -2,-18 -9,-25 -58,-57 -314,-133 -355,-109 1,11 16,37 20,49z"/>
    <path class="fil4" d="M756 1214c26,7 32,8 55,-5 33,-18 65,-49 105,-72 5,-3 25,-10 29,-9 102,6 358,-9 465,-32 13,-2 19,-4 32,-5 -7,-23 -26,-223 -104,-219 -110,6 -287,45 -367,101 -19,13 -8,71 -6,80 -18,4 -48,20 -65,28 -45,21 -152,76 -144,133z"/>
    <path class="fil4" d="M1338 872c3,7 30,41 38,68l64 -6c11,-43 40,-66 15,-71 -21,-5 -73,-4 -117,9z"/>
    <path class="fil4" d="M1403 1055l2 28 25 -2c-7,-55 -7,-78 4,-131l-51 5c4,26 17,41 20,100z"/>
    <path class="fil5" d="M743 1227c4,9 21,51 21,55 5,5 6,12 9,18 14,32 23,122 27,156l26 286c3,31 4,65 8,96 4,27 6,68 8,96 2,32 6,65 8,97 -28,-5 -61,-30 -83,-46 -20,-14 -125,-84 -129,-91 -16,-3 -57,-42 -69,-54 -21,-18 -35,-48 -43,-83 -18,-79 -30,-180 -45,-264l-4 -23c-4,-29 -19,-101 -25,-133 -8,-43 -33,-167 -53,-195 -4,-12 -19,-38 -20,-49 41,-24 297,52 355,109 7,7 7,13 9,25zm1414 -162c0,55 -28,79 -43,121 -7,19 -12,45 -16,65 -4,18 -11,50 -17,65 -1,15 -43,178 -48,194 -17,65 -30,128 -48,191 -20,70 -27,132 -78,165 -42,28 -134,41 -194,50 -70,10 -141,24 -210,33l-210 33c-70,12 -141,21 -210,33 -35,7 -70,11 -105,17 -40,7 -72,7 -113,4l-4 -55 -1 -12 -12 -135 0 -10c-1,-50 -9,-110 -13,-161 -8,-94 -20,-225 -35,-317 -9,-59 -36,-92 -44,-132 -8,-57 99,-112 144,-133 17,-8 47,-24 65,-28 160,-50 256,-81 418,-98l51 -5c130,-11 201,-10 315,-10 77,2 166,12 239,28 43,10 160,42 169,97zm-137 -232c6,4 35,32 42,40 30,38 77,99 87,150 -6,-5 -10,-10 -18,-15 -20,-14 -39,-22 -63,-31 -15,-7 -31,-11 -49,-16 -8,-2 -17,-4 -22,-5 -8,-3 -17,-5 -25,-6 -77,-17 -150,-19 -230,-26 -132,-2 -176,-2 -302,10l-64 6c-113,11 -169,11 -412,95l-65 30c-27,12 -65,33 -90,50 -70,50 -57,61 -68,73 -63,-52 -219,-101 -313,-113 -35,-5 -48,3 -55,2 -5,-33 3,-54 18,-76 10,-15 33,-44 44,-52 8,-16 79,-76 102,-93 97,-76 207,-126 328,-164 86,-28 191,-48 287,-56 68,-7 267,-16 327,0 68,10 126,16 201,35 24,3 74,20 98,28 59,21 119,47 171,80l29 19c2,2 6,5 8,7 9,7 28,20 34,28zm-538 -212l-94 -7c-300,-15 -656,57 -883,248 -32,27 -81,72 -105,102 -34,44 -61,76 -32,145 10,24 22,46 31,71 10,26 15,54 22,82 24,106 46,239 64,348 9,55 17,123 33,174 17,57 54,83 93,111 40,30 82,56 122,85 44,30 82,64 135,71 61,9 129,-7 186,-16 119,-18 237,-38 355,-56 60,-9 117,-19 177,-28 60,-9 120,-18 178,-28 54,-10 120,-19 158,-47 40,-29 52,-78 69,-138 15,-54 27,-110 42,-165 27,-102 57,-224 82,-329 21,-92 45,-103 55,-151 15,-75 -46,-166 -88,-219 -41,-52 -112,-106 -173,-135 -96,-46 -122,-55 -226,-84 -61,-16 -109,-27 -201,-34z"/>
   </g>
   <g>
    <path class="fil6" d="M1370 1007c-6,27 -11,42 -43,44 -78,4 -68,-121 21,-92 -50,40 -13,61 22,48zm-167 204c-182,-46 -177,-316 -31,-365 -19,28 -38,35 -58,84 -15,37 -22,71 -17,116 9,85 57,131 106,165zm25 -411c-296,53 -209,502 77,445 276,-56 204,-495 -77,-445z"/>
    <path class="fil6" d="M1705 1021c-66,122 -164,-97 -22,-60 -19,18 -24,20 -20,49l37 9c1,-2 4,1 5,2zm83 177c44,-37 97,-81 106,-167 13,-111 -54,-161 -74,-198 60,23 114,108 105,201 -8,79 -62,143 -137,164zm-92 -411c-304,53 -206,513 82,443 103,-25 187,-130 165,-262 -19,-107 -120,-204 -247,-181z"/>
    <path class="fil7" d="M1228 800c281,-50 353,389 77,445 -286,57 -373,-392 -77,-445zm468 -13c127,-23 228,74 247,181 22,132 -62,237 -165,262 -288,70 -386,-390 -82,-443zm-200 168c-35,-66 -39,-100 -98,-142 -186,-130 -401,19 -391,221 14,272 401,353 489,37 27,66 50,110 97,144 46,34 114,56 186,44 282,-49 263,-489 -26,-506 -134,-8 -243,92 -257,202z"/>
    <path class="fil7" d="M1906 1460c9,6 15,20 18,0 5,-62 -31,-44 -61,-24l31 8c-171,344 -746,289 -890,50l33 -31c-48,-8 -66,-1 -65,45 50,13 38,69 196,145 238,115 605,68 738,-193z"/>
    <path class="fil8" d="M1863 609c-176,11 -176,-70 -235,-95 -30,-13 -58,1 -61,34 -10,82 220,144 296,61z"/>
    <path class="fil7" d="M1138 619c-33,31 -54,73 -71,118 0,14 -4,11 11,11 6,-23 23,-42 42,-58 40,-32 86,-61 138,-75 44,-12 61,-7 76,-9 45,-8 26,-63 -7,-72 -66,-16 -143,41 -189,85z"/>
    <path class="fil9" d="M1203 1211c-49,-34 -97,-80 -106,-165 -5,-45 2,-79 17,-116 20,-49 39,-56 58,-84 -146,49 -151,319 31,365z"/>
    <path class="fil9" d="M1788 1198c75,-21 129,-85 137,-164 9,-93 -45,-178 -105,-201 20,37 87,87 74,198 -9,86 -62,130 -106,167z"/>
    <path class="fil8" d="M1705 1021c-1,-1 -4,-4 -5,-2l-37 -9c-4,-29 1,-31 20,-49 -142,-37 -44,182 22,60z"/>
    <path class="fil8" d="M1370 1007c-35,13 -72,-8 -22,-48 -89,-29 -99,96 -21,92 32,-2 37,-17 43,-44z"/>
    <path class="fil7" d="M1891 1357c32,-10 62,-6 76,25l9 20c1,-1 3,3 4,5 17,-98 -70,-98 -89,-50z"/>
    <path class="fil7" d="M1420 1771c16,14 18,29 51,29 33,0 43,-12 48,-36 -46,14 -58,4 -99,7z"/>
    <path class="fil7" d="M910 1494c36,-57 -14,-21 66,-62 -15,-10 -102,-25 -66,62z"/>
   </g>
  </g>
 </g>
</svg>
