<svg id="Layer_1" data-name="Layer 1" xmlns="http://www.w3.org/2000/svg" viewBox="0 0 224.61 466.49"><defs><style>.cls-1{fill:#fff;}</style></defs><title>todo_icon</title><path class="cls-1" d="M227.4,225.17A12.55,12.55,0,0,0,238,230.26a15.19,15.19,0,0,0,6.67-1.79,19.52,19.52,0,0,0,7.07-6,28.37,28.37,0,0,0,4-8,16.45,16.45,0,0,0,.47-7.4,16,16,0,0,0-2.76-6.93,12,12,0,0,0-5.79-4.34c-2.42-.88-5.3-.75-8.62.41a18.58,18.58,0,0,0-8.48,5.89,32.75,32.75,0,0,0-4.85,8.44,39.35,39.35,0,0,0-.74,4.46,18.56,18.56,0,0,0,.2,4.56A11.68,11.68,0,0,0,227.4,225.17Z" transform="translate(-138.45 -12.51)"/><path class="cls-1" d="M255.61,279.65c-.27-.16-.52-.31-.74-.47l-.74-.46a30.66,30.66,0,0,0-8.48-.92,28,28,0,0,0-8.35,1.44,21.21,21.21,0,0,0-6.93,3.88,13.41,13.41,0,0,0-4.25,6.47,16.44,16.44,0,0,0-.8,6.24c.18,1.78.44,3.86.8,6.25.36.62.7,1.23,1,1.85s.65,1.23,1,1.85l2.7,2.31a21.58,21.58,0,0,1,3.09,1.16,34.73,34.73,0,0,0,9.9-.46,21.78,21.78,0,0,0,8.68-4.05,2.78,2.78,0,0,1,.61-.64l1-.87,1-.86.61-.52.8-1V289.76c0-3.43,0-6.68-.13-9.77Z" transform="translate(-138.45 -12.51)"/><path class="cls-1" d="M351.17,214c-14.22-26.51-30.76-51.79-46.83-77.26s-30.86-51.84-40.86-80.45c-4.86-13.9-8.6-28.2-13.27-43.73C246.29,54,223.87,85.44,200.9,116.6c-10.33,14-20.73,28-30.56,42.33-14.73,21.53-27.09,44.29-30.8,70.59-5.23,37.06,8.84,68.32,30.51,96.94,18.71,24.71,41.3,45.61,65.36,65,1.87,1.5,3.78,4.51,3.65,6.69-1.54,25.83-3.46,51.63-5.28,77.44l.7,1.23L245.61,479c.93-23.81,1.8-47.09,2.86-70.35.09-2,.94-4.56,2.36-5.73,4.71-3.87,9.95-7.08,14.79-10.81,26.9-20.72,52.6-42.71,73.26-70C364.38,288.51,371.71,252.22,351.17,214Zm-140.6-20.29a8.27,8.27,0,0,1-4,1.85H194q-.13,8.91,0,18.33t.14,18.33a4.64,4.64,0,0,1-1.82,4,6.27,6.27,0,0,1-3.7,1.33,5.69,5.69,0,0,1-3.5-1.22,5.54,5.54,0,0,1-2-3.76q0-9-.07-18.5t-.07-18.5H175a7.35,7.35,0,0,1-4.38-1.73,4.18,4.18,0,0,1-1.41-3,4.53,4.53,0,0,1,1.55-3.18,6.27,6.27,0,0,1,4.64-1.56H183V167.76a6.57,6.57,0,0,1,2.16-3.47,5.29,5.29,0,0,1,3.36-1.16,5.66,5.66,0,0,1,5.52,4.28V186h12.93a7.11,7.11,0,0,1,3.77,1.91,4.13,4.13,0,0,1,1.21,2.83A3.88,3.88,0,0,1,210.57,193.66Zm3.3,21.74a40.15,40.15,0,0,1,.88-6l.4-1.51a48.36,48.36,0,0,1,3.64-7.22,32.94,32.94,0,0,1,5.11-6.42,30,30,0,0,1,15.35-8q7.81-1.5,13.67,1a22.52,22.52,0,0,1,9.35,7.29,25.93,25.93,0,0,1,4.65,10.81,23.55,23.55,0,0,1-.61,11.62,34,34,0,0,1-7.13,12.72,29.18,29.18,0,0,1-12.93,8.55,26.3,26.3,0,0,1-11.1,1.45,23.34,23.34,0,0,1-16.77-9.31,22.64,22.64,0,0,1-4-8.9A22.09,22.09,0,0,1,213.87,215.4Zm55.94,97.72a4.64,4.64,0,0,1-1.75,3,5.49,5.49,0,0,1-3.63,1,7,7,0,0,1-4.38-1.91,10.63,10.63,0,0,1-1.21-1.21,5.59,5.59,0,0,1-.81-1.22,31.2,31.2,0,0,1-9.35,4.69,35.92,35.92,0,0,1-10.78,1.67,28.75,28.75,0,0,1-10.43-1.91,20,20,0,0,1-8.35-5.95,19.74,19.74,0,0,1-3.7-7,27.67,27.67,0,0,1,0-15.72,40,40,0,0,1,2.9-7.23A17.71,17.71,0,0,1,223,276a29.53,29.53,0,0,1,6.4-3.94,36.31,36.31,0,0,1,6.93-2.48,34,34,0,0,1,7.34-1.1c2.15,0,4.31,0,6.46.12a28.7,28.7,0,0,1,6.33.92q-.14-8.33-.2-14.05c-.05-3.81-.07-6.38-.07-7.69a5.54,5.54,0,0,1,8.62-3.58,6.28,6.28,0,0,1,2.42,3.23v60.48a4.55,4.55,0,0,0,.6.64,4,4,0,0,1,.61.63A4.86,4.86,0,0,1,269.81,313.12Zm62.68-15a34.23,34.23,0,0,1-7.14,12.72,29.2,29.2,0,0,1-12.92,8.55,26.35,26.35,0,0,1-11.11,1.45,23.29,23.29,0,0,1-16.76-9.31,22.5,22.5,0,0,1-4-8.9,21.75,21.75,0,0,1-.47-6.13,38.7,38.7,0,0,1,.87-6l.41-1.51a47.36,47.36,0,0,1,3.63-7.22,32.33,32.33,0,0,1,5.12-6.42,30,30,0,0,1,15.35-8q7.8-1.5,13.66,1a22.47,22.47,0,0,1,9.36,7.29,26,26,0,0,1,4.64,10.81A23.68,23.68,0,0,1,332.49,298.15Z" transform="translate(-138.45 -12.51)"/><path class="cls-1" d="M319.56,281.27a12,12,0,0,0-5.79-4.34c-2.42-.89-5.29-.75-8.61.4a18.7,18.7,0,0,0-8.49,5.9,32.72,32.72,0,0,0-4.84,8.44,37.42,37.42,0,0,0-.74,4.45,17.68,17.68,0,0,0,.2,4.57,11.58,11.58,0,0,0,2.29,5.61,12.55,12.55,0,0,0,10.57,5.09,15.15,15.15,0,0,0,6.66-1.79,19.62,19.62,0,0,0,7.07-6,28.37,28.37,0,0,0,4-8,16.18,16.18,0,0,0,.47-7.4A15.73,15.73,0,0,0,319.56,281.27Z" transform="translate(-138.45 -12.51)"/></svg>